# xmcd CD database file
#
# Track frame offsets:
#	150
#	2959
#	4367
#	24621
#	41260
#	63820
#	86192
#	100439
#	120973
#	146378
#	165002
#	186396
#	205300
#	221585
#	240928
#	261364
#
# Disc length: 3721 seconds
#
# Revision: 0
# Processed by: cddbd v1.4b41PL1 Copyright (c) Steve Scherf et al.
# Submitted via: Feurio! 1.60.3ß - http://www.feurio.com
#
DISCID=d10e8710
DTITLE=Various Artist - KARAOKE - Millenium Love Songs Vol.7
DYEAR=1900
DGENRE=
TTITLE0=??? - Datentrack
TTITLE1=Rick Price - Heaven Knows
TTITLE2=Carole King - It´s Too Late
TTITLE3=Oleta Adams - Get Here
TTITLE4=Bryan Adams - Have You Really Loved A Woman
TTITLE5=Dr. Hook - Sharing The Night Together
TTITLE6=Eric Carmen - All By My Self
TTITLE7=Billy Joel - Just The Way You Are
TTITLE8=Garth Brooks - To Make You Feel My Love
TTITLE9=Backstreet Boys - All I Have To Give
TTITLE10=Brandy - Have You Ever?
TTITLE11=Lobo - I´d Love You To Want Me
TTITLE12=Bill Whithers - Lean On Me
TTITLE13=Bertie Higgins - Casablanca
TTITLE14=James Ingram and Linda Ronstadt - Somwhere Out There
TTITLE15=??? - Datentrack
EXTD=
EXTT0=
EXTT1=
EXTT2=
EXTT3=
EXTT4=
EXTT5=
EXTT6=
EXTT7=
EXTT8=
EXTT9=
EXTT10=
EXTT11=
EXTT12=
EXTT13=
EXTT14=
EXTT15=
PLAYORDER=
